<?xml version="1.0" encoding="UTF-8" standalone="no"?>
<!-- Created with Inkscape (http://www.inkscape.org/) -->

<svg
   xmlns:dc="http://purl.org/dc/elements/1.1/"
   xmlns:cc="http://creativecommons.org/ns#"
   xmlns:rdf="http://www.w3.org/1999/02/22-rdf-syntax-ns#"
   xmlns:svg="http://www.w3.org/2000/svg"
   xmlns="http://www.w3.org/2000/svg"
   xmlns:sodipodi="http://sodipodi.sourceforge.net/DTD/sodipodi-0.dtd"
   xmlns:inkscape="http://www.inkscape.org/namespaces/inkscape"
   width="296.88727"
   height="92.701614"
   id="svg2"
   version="1.1"
   inkscape:version="0.48.4 r9939"
   sodipodi:docname="playButton.svg"
   inkscape:export-filename="/home/brownie3003/Programming/weave/public/images/playButton.png"
   inkscape:export-xdpi="90"
   inkscape:export-ydpi="90">
  <defs
     id="defs4" />
  <sodipodi:namedview
     id="base"
     pagecolor="#ffffff"
     bordercolor="#666666"
     borderopacity="1.0"
     inkscape:pageopacity="0.0"
     inkscape:pageshadow="2"
     inkscape:zoom="2"
     inkscape:cx="139.41616"
     inkscape:cy="29.023255"
     inkscape:document-units="px"
     inkscape:current-layer="layer3"
     showgrid="false"
     inkscape:window-width="1366"
     inkscape:window-height="744"
     inkscape:window-x="0"
     inkscape:window-y="24"
     inkscape:window-maximized="1"
     fit-margin-top="0"
     fit-margin-left="0"
     fit-margin-right="0"
     fit-margin-bottom="0" />
  <metadata
     id="metadata7">
    <rdf:RDF>
      <cc:Work
         rdf:about="">
        <dc:format>image/svg+xml</dc:format>
        <dc:type
           rdf:resource="http://purl.org/dc/dcmitype/StillImage" />
        <dc:title></dc:title>
      </cc:Work>
    </rdf:RDF>
  </metadata>
  <g
     inkscape:label="Layer 1"
     inkscape:groupmode="layer"
     id="layer1"
     transform="translate(-189.01244,-294.05132)"
     style="display:inline">
    <rect
       style="fill:#1b6894;fill-opacity:0.94117647;stroke:none"
       id="rect2985"
       width="296.88727"
       height="92.531738"
       x="189.01244"
       y="294.22119"
       ry="24.215704" />
  </g>
  <g
     inkscape:groupmode="layer"
     id="layer2"
     inkscape:label="Layer2"
     style="display:inline"
     transform="translate(-7.2499918,-8.810813)">
    <rect
       style="fill:#2386bf;fill-opacity:0.94117647;stroke:none"
       id="rect2985-5"
       width="295.23486"
       height="89.159203"
       x="8.07619"
       y="8.810813"
       ry="17.719477" />
  </g>
  <g
     inkscape:groupmode="layer"
     id="layer3"
     inkscape:label="Layer 3"
     transform="translate(-7.2499918,-8.810813)">
    <g
       transform="translate(-145.18896,-302.91005)"
       style="font-size:40px;font-style:italic;font-variant:normal;font-weight:normal;font-stretch:normal;text-align:start;line-height:125%;letter-spacing:0px;word-spacing:0px;writing-mode:lr-tb;text-anchor:start;fill:none;stroke:#fff8f0;stroke-width:1.39999998;stroke-linecap:round;stroke-linejoin:round;stroke-miterlimit:4;stroke-opacity:1;stroke-dasharray:4.2, 4.2;stroke-dashoffset:0;display:inline;font-family:Colaborate-Medium;-inkscape-font-specification:Colaborate-Medium Italic"
       id="flowRoot3795">
      <path
         d="m 234.765,328.18846 c -0.44802,4e-5 -0.93336,0.0934 -1.456,0.28 -0.52269,0.14938 -1.00802,0.37338 -1.456,0.672 -0.44802,0.26138 -0.85869,0.59737 -1.232,1.008 -0.33602,0.41071 -0.56002,0.84004 -0.672,1.288 -1.86668,0.29871 -3.58402,0.74671 -5.152,1.344 -1.56801,0.59737 -2.91201,1.28804 -4.032,2.072 -1.12001,0.78404 -1.99734,1.6427 -2.632,2.576 -0.59734,0.93337 -0.89601,1.84803 -0.896,2.744 -1e-5,0.9707 0.26133,1.71736 0.784,2.24 0.55999,0.48536 1.15732,0.72803 1.792,0.728 0.78399,-0.74664 1.90399,-1.4373 3.36,-2.072 1.45599,-0.63464 2.98665,-1.1013 4.592,-1.4 -0.33602,1.45603 -0.72802,3.0987 -1.176,4.928 -0.41068,1.79202 -0.84002,3.65869 -1.288,5.6 -0.44801,1.90402 -0.91468,3.80802 -1.4,5.712 -0.44801,1.90401 -0.89601,3.67734 -1.344,5.32 -0.74668,2.65067 -1.49334,4.64801 -2.24,5.992 -0.70934,1.30667 -1.51201,1.96 -2.408,1.96 -0.52267,0 -1.08267,-0.18666 -1.68,-0.56 -0.56001,-0.37333 -1.13867,-0.87733 -1.736,-1.512 -0.52267,0.0373 -1.02667,0.18667 -1.512,0.448 -0.448,0.224 -0.85867,0.54134 -1.232,0.952 -0.336,0.41067 -0.616,0.87734 -0.84,1.4 -0.224,0.52267 -0.336,1.064 -0.336,1.624 0,1.68 0.56,3.024 1.68,4.032 1.12,1.04533 2.65066,1.56799 4.592,1.568 3.09866,-10e-6 5.76799,-1.04534 8.008,-3.136 2.27732,-2.09067 4.10665,-5.096 5.488,-9.016 2.23998,-0.11199 4.51731,-0.70933 6.832,-1.792 2.35197,-1.11999 4.47997,-2.61332 6.384,-4.48 1.90396,-1.90399 3.4533,-4.08798 4.648,-6.552 1.23196,-2.50131 1.84796,-5.17064 1.848,-8.008 -4e-5,-1.67997 -0.24271,-3.26664 -0.728,-4.76 -0.48537,-1.4933 -1.26937,-2.79997 -2.352,-3.92 -1.04537,-1.1573 -2.44537,-2.1093 -4.2,-2.856 -1.71736,-0.74663 -3.8267,-1.21329 -6.328,-1.4 -3e-5,-1.26929 -0.0934,-2.09062 -0.28,-2.464 -0.14936,-0.37329 -0.61603,-0.55996 -1.4,-0.56 m 6.496,18.424 c -3e-5,1.53069 -0.20536,2.98669 -0.616,4.368 -0.4107,1.38135 -0.98936,2.59468 -1.736,3.64 -0.74669,1.04535 -1.64269,1.88535 -2.688,2.52 -1.00803,0.63468 -2.12802,0.95201 -3.36,0.952 -0.0747,10e-6 -0.18669,10e-6 -0.336,0 -0.14936,10e-6 -0.29869,-0.0187 -0.448,-0.056 0.29864,-1.56799 0.57864,-3.19198 0.84,-4.872 0.29864,-1.67998 0.55998,-3.30398 0.784,-4.872 0.26131,-1.60531 0.48531,-3.13597 0.672,-4.592 0.18664,-1.45597 0.35464,-2.7813 0.504,-3.976 1.26931,0.22403 2.31464,0.5787 3.136,1.064 0.8213,0.44803 1.47464,0.9707 1.96,1.568 0.4853,0.59736 0.8213,1.26936 1.008,2.016 0.18664,0.70936 0.27997,1.45603 0.28,2.24"
         style="font-size:56px;font-style:normal;line-height:125%;letter-spacing:5.05076313;fill:none;stroke:#fff8f0;stroke-width:1.39999998;stroke-linecap:round;stroke-linejoin:round;stroke-miterlimit:4;stroke-opacity:1;stroke-dasharray:4.2, 4.2;stroke-dashoffset:0;marker-mid:none;font-family:Bello-Script;-inkscape-font-specification:Bello-Script"
         id="path3825"
         inkscape:connector-curvature="0" />
      <path
         d="m 264.41114,355.23646 c -0.48535,1.15735 -1.00801,2.29601 -1.568,3.416 -0.52268,1.12001 -1.10135,2.29601 -1.736,3.528 -1.23201,-0.11199 -2.31468,-0.16799 -3.248,-0.168 -2.12801,1e-5 -3.62134,0.31734 -4.48,0.952 -0.82134,0.63467 -1.232,1.60534 -1.232,2.912 0,0.784 0.14933,1.624 0.448,2.52 0.29866,0.85867 0.69066,1.66133 1.176,2.408 0.52266,0.74667 1.10133,1.36267 1.736,1.848 0.63466,0.48533 1.30666,0.728 2.016,0.728 0.85866,0 1.71732,-0.28 2.576,-0.84 0.89599,-0.52267 1.84799,-1.26933 2.856,-2.24 2.76265,0.63467 5.18931,1.288 7.28,1.96 2.12798,0.672 3.99464,1.38133 5.6,2.128 1.60531,0.74666 3.02397,1.512 4.256,2.296 1.23197,0.82133 2.35197,1.67999 3.36,2.576 1.00796,-0.29867 1.86663,-0.95201 2.576,-1.96 0.74663,-1.00801 1.11996,-2.22134 1.12,-3.64 -4e-5,-0.97067 -0.2427,-1.96 -0.728,-2.968 -0.48537,-1.04533 -1.40004,-2.05333 -2.744,-3.024 -1.34403,-0.97066 -3.2107,-1.88533 -5.6,-2.744 -2.35203,-0.85866 -5.39469,-1.60533 -9.128,-2.24 0.41065,-0.59732 0.82131,-1.23199 1.232,-1.904 0.44798,-0.70932 0.85864,-1.39999 1.232,-2.072 0.41064,-0.70932 0.76531,-1.38132 1.064,-2.016 0.29864,-0.63465 0.54131,-1.19465 0.728,-1.68 3.13597,-0.97065 5.84264,-2.09065 8.12,-3.36 2.2773,-1.30665 4.16263,-2.66931 5.656,-4.088 1.49329,-1.45597 2.59463,-2.93064 3.304,-4.424 0.74662,-1.4933 1.11996,-2.9493 1.12,-4.368 -4e-5,-1.19463 -0.26138,-2.35197 -0.784,-3.472 -0.52271,-1.11996 -1.26937,-2.1093 -2.24,-2.968 -0.93337,-0.85863 -2.07204,-1.54929 -3.416,-2.072 -1.34403,-0.52263 -2.83737,-0.78396 -4.48,-0.784 -1.4187,4e-5 -2.7627,0.33604 -4.032,1.008 -1.23203,0.63471 -2.33336,1.73604 -3.304,3.304 -0.37336,0.6347 -0.82136,1.49337 -1.344,2.576 -0.48536,1.04537 -1.02669,2.2587 -1.624,3.64 -0.56002,1.38136 -1.15735,2.87469 -1.792,4.48 -0.59735,1.60536 -1.19468,3.24802 -1.792,4.928 -0.85868,-0.18664 -1.77335,-0.48531 -2.744,-0.896 -0.93335,-0.44798 -1.81068,-0.98931 -2.632,-1.624 -0.74668,0.44802 -1.32534,0.98936 -1.736,1.624 -0.41068,0.63469 -0.61601,1.38135 -0.616,2.24 -1e-5,1.12002 0.52266,2.09068 1.568,2.912 1.04532,0.82135 2.37065,1.34402 3.976,1.568 m 13.552,-15.288 c 0.3733,-1.23197 0.74664,-2.03463 1.12,-2.408 0.3733,-0.3733 0.74664,-0.55997 1.12,-0.56 1.11997,3e-5 2.09063,0.31737 2.912,0.952 0.85863,0.59737 1.28796,1.32537 1.288,2.184 -4e-5,1.6427 -0.8587,3.28536 -2.576,4.928 -1.71736,1.64269 -4.0507,3.06136 -7,4.256 l 3.136,-9.352"
         style="font-size:56px;font-style:normal;line-height:125%;letter-spacing:5.05076313;fill:none;stroke:#fff8f0;stroke-width:1.39999998;stroke-linecap:round;stroke-linejoin:round;stroke-miterlimit:4;stroke-opacity:1;stroke-dasharray:4.2, 4.2;stroke-dashoffset:0;font-family:Bello-Script;-inkscape-font-specification:Bello-Script"
         id="path3827"
         inkscape:connector-curvature="0" />
      <path
         d="m 303.11527,359.88446 c -0.37334,-1.26932 -1.36267,-1.90399 -2.968,-1.904 -1.04534,1e-5 -2.016,0.24268 -2.912,0.728 -0.896,0.44801 -1.68,1.06401 -2.352,1.848 -0.672,0.78401 -1.19466,1.69868 -1.568,2.744 -0.37333,1.00801 -0.56,2.07201 -0.56,3.192 0,2.87467 0.76534,5.096 2.296,6.664 1.53067,1.568 3.65866,2.352 6.384,2.352 1.26933,0 2.46399,-0.18667 3.584,-0.56 1.15732,-0.37334 2.33332,-1.008 3.528,-1.904 1.19465,-0.896 2.44532,-2.09067 3.752,-3.584 1.30665,-1.53066 2.74398,-3.43466 4.312,-5.712 1.41865,-0.0747 2.96798,-0.14933 4.648,-0.224 1.67997,-0.11199 3.11731,-0.22399 4.312,-0.336 -0.0374,0.67201 -0.0747,1.25067 -0.112,1.736 -3e-5,0.48534 -0.0187,0.91467 -0.056,1.288 -3e-5,0.37334 -3e-5,0.74667 0,1.12 -3e-5,0.336 -3e-5,0.728 0,1.176 -3e-5,1.60533 0.3733,2.8 1.12,3.584 0.78397,0.784 2.0533,1.176 3.808,1.176 0.89597,0 1.90396,-0.26134 3.024,-0.784 1.11996,-0.48533 2.23996,-1.12 3.36,-1.904 1.15729,-0.82133 2.27729,-1.736 3.36,-2.744 1.08262,-1.008 2.03462,-2.01599 2.856,-3.024 0.85862,-1.04533 1.53062,-2.01599 2.016,-2.912 0.52262,-0.93332 0.78395,-1.71732 0.784,-2.352 -5e-5,-0.52265 -0.22405,-0.95199 -0.672,-1.288 -0.44805,-0.37332 -0.93338,-0.55999 -1.456,-0.56 l -0.224,0 c -1.00805,1.41868 -1.96004,2.59468 -2.856,3.528 -0.85871,0.89601 -1.64271,1.62401 -2.352,2.184 -0.67204,0.56001 -1.25071,0.95201 -1.736,1.176 -0.48537,0.22401 -0.82137,0.33601 -1.008,0.336 -0.41071,10e-6 -0.65337,-0.31733 -0.728,-0.952 -0.0747,-0.63466 -0.11204,-1.54932 -0.112,-2.744 0.70929,-0.59732 1.28796,-1.28799 1.736,-2.072 0.44796,-0.82132 0.67196,-1.62399 0.672,-2.408 -4e-5,-0.82132 -0.20537,-1.43732 -0.616,-1.848 -0.37337,-0.44798 -0.89604,-0.72798 -1.568,-0.84 0.0746,-1.23198 0.14929,-2.50131 0.224,-3.808 0.11196,-1.34398 0.22396,-2.66931 0.336,-3.976 0.11196,-1.34397 0.24263,-2.63197 0.392,-3.864 0.18663,-1.23197 0.37329,-2.35197 0.56,-3.36 1.11996,-0.7093 2.01596,-1.30663 2.688,-1.792 0.70929,-0.4853 1.25062,-0.91463 1.624,-1.288 0.41062,-0.3733 0.67196,-0.69063 0.784,-0.952 0.14929,-0.2613 0.22395,-0.5413 0.224,-0.84 -0.0747,-0.89596 -0.50404,-1.73596 -1.288,-2.52 -0.78404,-0.82129 -1.94138,-1.23196 -3.472,-1.232 -1.15737,4e-5 -2.2027,0.20537 -3.136,0.616 -0.93337,0.41071 -1.7547,0.98937 -2.464,1.736 -0.67203,0.70937 -1.2507,1.54937 -1.736,2.52 -0.48537,0.93337 -0.8587,1.94137 -1.12,3.024 -1.4187,2.01603 -2.83736,4.0507 -4.256,6.104 -1.41869,2.05336 -2.78136,4.01336 -4.088,5.88 -1.26936,1.86669 -2.46402,3.60268 -3.584,5.208 -1.12002,1.56801 -2.09068,2.87468 -2.912,3.92 -2.01602,0.11201 -3.88268,0.20534 -5.6,0.28 -1.68001,0.0747 -3.30401,0.13068 -4.872,0.168 m 0.504,8.232 c -0.63467,0 -1.15734,-0.20533 -1.568,-0.616 -0.37334,-0.448 -0.56,-1.12 -0.56,-2.016 0,-0.14933 0,-0.33599 0,-0.56 0.0373,-0.26133 0.0933,-0.48533 0.168,-0.672 1.15733,1e-5 2.37066,1e-5 3.64,0 1.26932,1e-5 2.70666,-0.0373 4.312,-0.112 -1.30668,1.53067 -2.40801,2.576 -3.304,3.136 -0.85868,0.56 -1.75467,0.84 -2.688,0.84 m 16.576,-9.128 c 0.44798,-0.78399 0.98931,-1.71732 1.624,-2.8 0.67197,-1.11998 1.34397,-2.27732 2.016,-3.472 0.70931,-1.23198 1.3813,-2.42665 2.016,-3.584 0.67197,-1.15731 1.23197,-2.16531 1.68,-3.024 -0.1867,0.82136 -0.3547,1.79202 -0.504,2.912 -0.14936,1.12002 -0.2987,2.27735 -0.448,3.472 -0.11203,1.15735 -0.22403,2.27735 -0.336,3.36 -0.11203,1.08268 -0.20536,1.97868 -0.28,2.688 -0.7467,0.0747 -1.66136,0.14935 -2.744,0.224 -1.08269,0.0747 -2.09069,0.14935 -3.024,0.224"
         style="font-size:56px;font-style:normal;line-height:125%;letter-spacing:5.05076313;fill:none;stroke:#fff8f0;stroke-width:1.39999998;stroke-linecap:round;stroke-linejoin:round;stroke-miterlimit:4;stroke-opacity:1;stroke-dasharray:4.2, 4.2;stroke-dashoffset:0;font-family:Bello-Script;-inkscape-font-specification:Bello-Script"
         id="path3829"
         inkscape:connector-curvature="0" />
      <path
         d="m 379.48816,367.72446 c 0.22396,-0.74666 0.44796,-1.56799 0.672,-2.464 0.2613,-0.89599 0.4853,-1.77333 0.672,-2.632 0.14929,-0.78399 0.35463,-1.81066 0.616,-3.08 0.29863,-1.30665 0.59729,-2.74399 0.896,-4.312 0.33596,-1.56798 0.67196,-3.22931 1.008,-4.984 0.33596,-1.75464 0.67196,-3.49064 1.008,-5.208 1.11996,-2.05331 1.92262,-3.6773 2.408,-4.872 0.52262,-1.19463 0.78395,-2.2773 0.784,-3.248 -5e-5,-0.52263 -0.16804,-1.08263 -0.504,-1.68 -0.33604,-0.63463 -0.78404,-1.2133 -1.344,-1.736 -0.56004,-0.52263 -1.19471,-0.95196 -1.904,-1.288 -0.67204,-0.33596 -1.36271,-0.50396 -2.072,-0.504 -0.89604,4e-5 -1.71737,0.44804 -2.464,1.344 -0.70937,0.89604 -1.3627,2.3147 -1.96,4.256 -0.59737,1.90403 -1.15737,4.3867 -1.68,7.448 -0.5227,3.06136 -1.0267,6.77602 -1.512,11.144 -1.12003,1.23201 -2.38936,2.18401 -3.808,2.856 -1.38136,0.67201 -2.66936,1.00801 -3.864,1.008 -0.52269,10e-6 -0.95202,-0.14932 -1.288,-0.448 -0.33602,-0.33599 -0.50402,-0.82132 -0.504,-1.456 -2e-5,-0.33599 0.0186,-0.67199 0.056,-1.008 0.0746,-0.33599 0.18664,-0.74665 0.336,-1.232 0.14931,-0.52265 0.37331,-1.13865 0.672,-1.848 0.29864,-0.74665 0.69064,-1.66131 1.176,-2.744 1.41864,-3.13598 2.53864,-5.63731 3.36,-7.504 0.8213,-1.86664 1.4373,-3.32264 1.848,-4.368 0.41064,-1.08263 0.6533,-1.8853 0.728,-2.408 0.11197,-0.55997 0.16797,-1.1013 0.168,-1.624 -3e-5,-3.06129 -1.90403,-4.59196 -5.712,-4.592 -1.12002,4e-5 -2.37069,0.20537 -3.752,0.616 -1.38135,0.41071 -2.80002,0.97071 -4.256,1.68 -1.45602,0.70937 -2.89335,1.56804 -4.312,2.576 -1.38134,0.9707 -2.61334,2.0347 -3.696,3.192 -1.08267,1.15736 -1.96001,2.38936 -2.632,3.696 -0.67201,1.26936 -1.00801,2.55736 -1.008,3.864 -1e-5,1.19469 0.24266,2.27736 0.728,3.248 0.52266,0.97069 1.19466,1.81069 2.016,2.52 0.85866,0.70935 1.84799,1.26935 2.968,1.68 1.15732,0.37335 2.37065,0.57868 3.64,0.616 -0.63468,1.68002 -1.08268,3.11735 -1.344,4.312 -0.26135,1.15734 -0.39201,2.24001 -0.392,3.248 -10e-6,2.09067 0.57865,3.78934 1.736,5.096 1.19465,1.26934 2.87465,1.904 5.04,1.904 1.97865,0 3.95731,-0.57866 5.936,-1.736 1.97864,-1.15733 3.7333,-2.78133 5.264,-4.872 -0.37336,1.64267 -0.72803,3.19201 -1.064,4.648 -0.2987,1.41867 -0.65336,2.61334 -1.064,3.584 -4.21869,2.128 -7.26135,3.88266 -9.128,5.264 -1.86668,1.38133 -2.80002,2.65066 -2.8,3.808 -2e-5,0.74666 0.20532,1.41866 0.616,2.016 0.41065,0.59732 0.91465,1.10132 1.512,1.512 0.63465,0.44799 1.30665,0.78399 2.016,1.008 0.74665,0.26132 1.43731,0.39199 2.072,0.392 1.30664,-1e-5 2.53864,-0.26135 3.696,-0.784 1.19464,-0.52268 2.29597,-1.23201 3.304,-2.128 1.00797,-0.85868 1.92263,-1.86668 2.744,-3.024 0.8213,-1.15734 1.53063,-2.37067 2.128,-3.64 1.4933,-0.93334 3.04263,-2.072 4.648,-3.416 1.64263,-1.344 3.15462,-2.72533 4.536,-4.144 1.38129,-1.45599 2.51995,-2.87466 3.416,-4.256 0.89595,-1.38132 1.34395,-2.59466 1.344,-3.64 -5e-5,-0.63465 -0.20538,-1.08265 -0.616,-1.344 -0.37338,-0.29865 -0.82138,-0.46665 -1.344,-0.504 -1.56805,2.35201 -3.13604,4.31201 -4.704,5.88 -1.56804,1.56801 -3.24804,3.00534 -5.04,4.312 m -24.36,-22.96 c -10e-6,-1.00797 0.31732,-1.95997 0.952,-2.856 0.63465,-0.89597 1.38132,-1.67997 2.24,-2.352 0.85865,-0.7093 1.69865,-1.2693 2.52,-1.68 0.82131,-0.41063 1.43731,-0.61597 1.848,-0.616 0.37331,3e-5 0.63465,0.0934 0.784,0.28 0.18665,0.14937 0.27998,0.4667 0.28,0.952 -2e-5,0.5227 -0.14935,1.1387 -0.448,1.848 -0.26135,0.70936 -0.63469,1.5307 -1.12,2.464 -0.44802,0.89603 -0.97069,1.90403 -1.568,3.024 -0.56002,1.08269 -1.13868,2.27736 -1.736,3.584 -1.45601,-0.74664 -2.44535,-1.47464 -2.968,-2.184 -0.52268,-0.70931 -0.78401,-1.53064 -0.784,-2.464"
         style="font-size:56px;font-style:normal;line-height:125%;letter-spacing:5.05076313;fill:none;stroke:#fff8f0;stroke-width:1.39999998;stroke-linecap:round;stroke-linejoin:round;stroke-miterlimit:4;stroke-opacity:1;stroke-dasharray:4.2, 4.2;stroke-dashoffset:0;font-family:Bello-Script;-inkscape-font-specification:Bello-Script"
         id="path3831"
         inkscape:connector-curvature="0" />
    </g>
  </g>
</svg>
